<?xml version="1.0" encoding="iso-8859-1"?>
<!-- Generator: Adobe Illustrator 19.0.0, SVG Export Plug-In . SVG Version: 6.00 Build 0)  -->
<svg version="1.1" id="Layer_1" xmlns="http://www.w3.org/2000/svg" xmlns:xlink="http://www.w3.org/1999/xlink" x="0px" y="0px"
	 viewBox="0 0 496 496" style="enable-background:new 0 0 496 496;" xml:space="preserve">
<g>
	<g>
		<path fill="#Ffffff" fill-rule="nonzero" d="M495.52,112h-16V0h-128v112h-16v136h-49.128c5.624-7.112,9.128-15.968,9.128-25.72V120
			c0-12.592-5.968-23.712-15.096-31.048C294.248,80.52,303.52,65.344,303.52,48c0-26.472-21.528-48-48-48s-48,21.528-48,48
			c0,17.344,9.272,32.52,23.096,40.952c-9.128,7.336-15.096,18.456-15.096,31.048v4.688L196.208,144H175.52
			c-14.064,0-25.632,10.464-27.592,24h-8.856c-5.552-9.52-15.76-16-27.552-16h-32v64h23.408l-6.856,96H79.52v24.384
			c-37.536,3.488-69.6,31.216-77.864,68.512l-1.176,5.352l15.176,10.12c-0.08,1.24-0.136,2.456-0.136,3.632
			c0,39.704,32.296,72,72,72c33.832,0,62.824-23.656,70.152-56.064l16.68,0.064l0.728-7.192c0.28-2.904,0.44-5.832,0.44-8.808h152
			c0,39.704,32.296,72,72,72c39.704,0,72-32.296,72-72h24v-24.76c0-16.272-2.608-32.368-7.768-47.832
			c-12.992-38.984-40.72-69.88-75.76-87.416h83.528V112z M407.52,16h16v40h-16V16z M367.52,16h24v56h48V16h24v96h-96V16z
			 M423.52,128v40h-16v-40H423.52z M223.52,48c0-17.648,14.352-32,32-32s32,14.352,32,32s-14.352,32-32,32S223.52,65.648,223.52,48z
			 M245.176,117.656l-10.088-10.088C239.312,100.664,246.848,96,255.52,96c13.232,0,24,10.768,24,24v72h-48v-4.816
			c0.456-0.424,0.936-0.808,1.376-1.248l36.28-36.28l-11.312-11.312l-22.344,22.344L218.832,144L245.176,117.656z M263.52,288
			c22.056,0,40,17.944,40,40c0,22.056-17.944,40-40,40h-40V264h30.28c0.592,0,1.136-0.152,1.72-0.176V288H263.52z M253.8,248h-30.28
			c-8.824,0-16,7.176-16,16v56h-24v-80c0-8.824,7.176-16,16-16h32v-16h48v14.28C279.52,236.464,267.984,248,253.8,248z M207.52,336
			v32h-24v-32H207.52z M175.52,160h27.312l4.688-4.688L224.208,172l-2.624,2.624c-6.048,6.048-14.088,9.376-22.632,9.376H175.52
			c-6.616,0-12-5.384-12-12C163.52,165.384,168.904,160,175.52,160z M143.52,216v-32h6.808c4.512,9.424,14.064,16,25.192,16h23.432
			c5.752,0,11.328-1.056,16.568-2.984V208h-16c-17.648,0-32,14.352-32,32v128h-12.168c-5.64-6.816-12.304-12.728-19.72-17.6
			L143.52,216z M95.52,200v-32h16c8.824,0,16,7.176,16,16c0,8.824-7.176,16-16,16H95.52z M95.52,328h15.448l8.072-112.984
			c3.032-0.736,5.864-1.936,8.496-3.472v3.992L120.08,342.32c-7.72-3.088-15.952-5.128-24.56-5.912V328z M87.52,480
			c-30.872,0-56-25.128-56-56h23.208l0.808,0.16C55.624,441.736,69.928,456,87.52,456c13.008,0,24.344-8.032,29.248-19.592
			l17.184,3.44l7.184,0.024C134.232,463.264,112.6,480,87.52,480z M71.912,427.44l28.56,5.712C97.568,437.288,92.824,440,87.52,440
			C79.88,440,73.496,434.608,71.912,427.44z M136.312,424l-79.216-15.84L25.944,408l-7.296-4.856
			c1.816-5.992,4.432-11.616,7.648-16.808L37.632,392h25.016l71.144,15.816l3.472-15.624l-72-16L41.408,376l-5-2.504
			C49.632,360.168,67.896,352,87.52,352c39.704,0,72,32.296,72,72H136.312z M399.52,480c-30.872,0-56-25.128-56-56h24
			c0,17.648,14.352,32,32,32s32-14.352,32-32h24C455.52,454.872,430.392,480,399.52,480z M383.52,424h32c0,8.824-7.176,16-16,16
			C390.696,440,383.52,432.824,383.52,424z M472.576,356.48c2.136,6.392,3.728,12.92,4.88,19.52H319.52v16h159.712
			c0.128,2.408,0.288,4.816,0.288,7.24V408H173.992c-1.568-8.496-4.36-16.544-8.184-24h1.712h56h40c30.872,0,56-25.128,56-56
			c0-28.168-20.896-51.536-48-55.432V264h64h8.76C402.584,264,454.136,301.168,472.576,356.48z M479.52,248h-128V128h40v56h48v-56
			h40V248z"/>
	</g>
</g>
<g>
</g>
<g>
</g>
<g>
</g>
<g>
</g>
<g>
</g>
<g>
</g>
<g>
</g>
<g>
</g>
<g>
</g>
<g>
</g>
<g>
</g>
<g>
</g>
<g>
</g>
<g>
</g>
<g>
</g>
</svg>
