<?xml version="1.0" encoding="iso-8859-1"?>
<!-- Generator: Adobe Illustrator 19.0.0, SVG Export Plug-In . SVG Version: 6.00 Build 0)  -->
<svg version="1.1" id="Layer_1" xmlns="http://www.w3.org/2000/svg" xmlns:xlink="http://www.w3.org/1999/xlink" x="0px" y="0px"
	 viewBox="0 0 512.002 512.002" style="enable-background:new 0 0 512.002 512.002;" xml:space="preserve">
<g>
	<g>
		<path d="M10.585,491.087h-0.137C4.677,491.087,0,495.764,0,501.534c0,5.77,4.677,10.448,10.448,10.448h0.137
			c5.77,0,10.448-4.677,10.448-10.448C21.032,495.764,16.355,491.087,10.585,491.087z"/>
	</g>
</g>
<g>
	<g>
		<path d="M501.5,491.086h-0.137c-5.77,0-10.448,4.677-10.448,10.448s4.677,10.448,10.448,10.448h0.137
			c5.77,0,10.448-4.677,10.448-10.448S507.27,491.086,501.5,491.086z"/>
	</g>
</g>
<g>
	<g>
		<path d="M294.08,212.129c-6.44,0-11.679,5.239-11.679,11.679c0,6.439,5.239,11.678,11.679,11.678
			c6.439,0,11.678-5.239,11.679-11.678C305.758,217.368,300.52,212.129,294.08,212.129z"/>
	</g>
</g>
<g>
	<g>
		<path d="M217.874,212.129c-6.44,0-11.679,5.239-11.679,11.679c0,6.439,5.239,11.678,11.679,11.678s11.679-5.239,11.679-11.678
			C229.553,217.368,224.314,212.129,217.874,212.129z"/>
	</g>
</g>
<g>
	<g>
		<path d="M266.23,261.355h-20.419c-5.77,0-10.448,4.677-10.448,10.448c0,11.39,9.267,20.657,20.657,20.657
			s20.657-9.267,20.657-20.657C276.678,266.033,272,261.355,266.23,261.355z"/>
	</g>
</g>
<g>
	<g>
		<path d="M483.789,347.527v-97.901c9.25-7.884,14.627-19.378,14.627-31.758c0-12.631-5.628-24.453-15.442-32.433
			c-2.992-2.433-7.084-3.018-10.64-1.525c-3.556,1.494-6,4.827-6.355,8.669c-0.449,4.855-4.471,8.516-9.354,8.516
			s-8.905-3.661-9.354-8.516c-0.356-3.841-2.799-7.173-6.355-8.669c-3.557-1.495-7.647-0.909-10.64,1.525
			c-9.814,7.98-15.442,19.802-15.442,32.433c0,12.381,5.376,23.874,14.627,31.758v97.901c-9.25,7.883-14.627,19.377-14.627,31.758
			c0,12.631,5.628,24.453,15.442,32.433c2.994,2.434,7.084,3.02,10.64,1.525c3.556-1.494,6-4.827,6.355-8.669
			c0.449-4.854,4.471-8.515,9.354-8.515s8.905,3.661,9.354,8.515c0.356,3.841,2.799,7.173,6.355,8.669
			c1.305,0.547,2.68,0.816,4.047,0.816c2.362,0,4.697-0.8,6.593-2.341c9.814-7.979,15.442-19.801,15.442-32.433
			C498.416,366.904,493.039,355.411,483.789,347.527z M467.761,361.609c6.112,3.862,9.76,10.47,9.76,17.676
			c0,1.302-0.119,2.586-0.352,3.84c-5.403-4.969-12.621-7.96-20.544-7.96c-7.922,0-15.14,2.991-20.544,7.96
			c-0.232-1.254-0.352-2.538-0.352-3.84c0-7.206,3.648-13.814,9.76-17.676c3.03-1.915,4.867-5.249,4.867-8.833V244.375
			c0-3.585-1.838-6.917-4.867-8.833c-6.111-3.862-9.76-10.47-9.76-17.676c0-1.302,0.119-2.586,0.352-3.84
			c5.403,4.969,12.621,7.96,20.544,7.96c7.923,0,15.141-2.991,20.544-7.96c0.232,1.254,0.352,2.538,0.352,3.84
			c0,7.206-3.648,13.813-9.76,17.676c-3.03,1.915-4.867,5.249-4.867,8.833v108.401C462.894,356.361,464.731,359.694,467.761,361.609
			z"/>
	</g>
</g>
<g>
	<g>
		<path d="M61.749,12.572c-3.735-2.837-8.903-2.837-12.638,0c-1.448,1.099-35.472,27.305-35.472,59.247
			c0,23.765,17.575,41.013,41.791,41.013s41.791-17.248,41.791-41.013C97.221,39.877,63.197,13.672,61.749,12.572z M55.43,91.937
			c-10.401,0-20.896-6.221-20.896-20.117c0-13.999,12.054-28.655,20.912-37.132c8.858,8.445,20.879,23.052,20.879,37.132
			C76.325,85.716,65.831,91.937,55.43,91.937z"/>
	</g>
</g>
<g>
	<g>
		<path d="M96.576,310.796H96.44c-5.77,0-10.448,4.677-10.448,10.448s4.677,10.448,10.448,10.448h0.137
			c5.77,0,10.448-4.677,10.448-10.448S102.346,310.796,96.576,310.796z"/>
	</g>
</g>
<g>
	<g>
		<g>
			<path d="M509.985,83.146l-9.116-12.452c0.02-0.588,0.029-1.171,0.029-1.749c0-0.561-0.009-1.127-0.028-1.698l9.114-12.451
				c2.074-2.832,2.586-6.515,1.366-9.805c-2.705-7.293-6.603-14.034-11.586-20.036c-2.239-2.698-5.679-4.09-9.168-3.713
				l-15.289,1.662c-0.992-0.616-2.005-1.201-3.035-1.754l-6.203-14.066c-1.417-3.214-4.355-5.5-7.817-6.086
				c-7.715-1.305-15.414-1.305-23.128,0c-3.462,0.585-6.4,2.872-7.817,6.086l-6.203,14.066c-1.03,0.553-2.043,1.138-3.035,1.754
				l-15.29-1.662c-3.486-0.382-6.93,1.016-9.169,3.714c-4.982,6.002-8.88,12.743-11.585,20.035c-1.22,3.29-0.707,6.974,1.366,9.805
				l9.114,12.451c-0.018,0.569-0.027,1.136-0.027,1.698c0,0.578,0.009,1.161,0.029,1.749l-9.116,12.452
				c-2.074,2.832-2.586,6.515-1.366,9.805c2.705,7.292,6.603,14.032,11.585,20.035c2.239,2.698,5.677,4.091,9.169,3.714
				l15.363-1.671c0.958,0.593,1.937,1.159,2.932,1.693l6.232,14.135c1.417,3.214,4.354,5.5,7.817,6.086
				c3.858,0.652,7.75,0.983,11.564,0.983c3.813,0,7.704-0.331,11.567-0.983c3.464-0.585,6.4-2.872,7.817-6.086l6.232-14.135
				c0.995-0.534,1.974-1.099,2.932-1.693l15.363,1.671c3.483,0.381,6.929-1.016,9.168-3.713c4.983-6.002,8.881-12.743,11.586-20.036
				C512.57,89.661,512.058,85.977,509.985,83.146z M479.795,65.281c0.136,1.25,0.205,2.481,0.205,3.66
				c0,1.189-0.07,2.431-0.209,3.693c-0.285,2.596,0.413,5.205,1.956,7.312l7.837,10.707c-0.805,1.59-1.697,3.132-2.676,4.624
				l-13.212-1.437c-2.599-0.282-5.208,0.42-7.316,1.967c-1.954,1.436-4.076,2.661-6.307,3.642c-2.39,1.052-4.301,2.96-5.354,5.349
				l-5.358,12.152c-1.795,0.103-3.555,0.103-5.35,0l-5.359-12.152c-1.053-2.389-2.964-4.298-5.354-5.349
				c-2.232-0.981-4.354-2.206-6.307-3.642c-2.106-1.548-4.712-2.249-7.316-1.967l-13.212,1.437
				c-0.978-1.492-1.871-3.035-2.676-4.624l7.837-10.707c1.543-2.108,2.241-4.717,1.956-7.312c-0.139-1.262-0.209-2.504-0.209-3.693
				c0-1.182,0.069-2.412,0.205-3.657c0.282-2.593-0.416-5.198-1.957-7.303l-7.832-10.699c0.805-1.589,1.698-3.132,2.676-4.624
				l13.149,1.43c2.607,0.283,5.222-0.423,7.33-1.978c1.974-1.455,4.12-2.695,6.378-3.687c2.394-1.051,4.307-2.961,5.361-5.352
				l5.329-12.086c1.796-0.103,3.555-0.103,5.351,0l5.329,12.086c1.054,2.393,2.967,4.302,5.361,5.352
				c2.259,0.99,4.405,2.232,6.378,3.687c2.108,1.555,4.723,2.261,7.33,1.978l13.149-1.43c0.978,1.492,1.871,3.035,2.676,4.624
				l-7.832,10.699C480.21,60.085,479.513,62.689,479.795,65.281z"/>
			<path d="M446.686,40.264c-15.814,0-28.679,12.865-28.679,28.679s12.865,28.679,28.679,28.679s28.679-12.865,28.679-28.679
				S462.499,40.264,446.686,40.264z M446.686,76.727c-4.292,0-7.784-3.492-7.784-7.784c0-4.292,3.492-7.784,7.784-7.784
				c4.291,0,7.784,3.492,7.784,7.784S450.978,76.727,446.686,76.727z"/>
		</g>
	</g>
</g>
<g>
	<g>
		<path d="M467.562,491.087h-57.963v-70.643c0-20.365-12.291-39.709-29.888-47.041l-67.24-28.016
			c-2.39-0.996-3.936-3.313-3.936-5.904v-16.269l27.31-15.659c0.19-0.109,0.377-0.225,0.561-0.346
			c13.674-9.03,22.654-25.09,24.019-42.96c0.021-0.264,0.03-0.531,0.03-0.796v-8.674c13.568-4.413,23.402-17.18,23.402-32.201
			s-9.834-27.788-23.402-32.201v-9.665c7.124-5.435,11.071-14.035,10.429-23.108l-1.6-33.806c0-0.26-0.01-0.521-0.03-0.783
			l-3.393-44.056c-1.702-21.952-17.271-39.941-38.744-44.763l-68.351-15.354c-1.592-0.407-3.287-0.436-4.896-0.074l-68.655,15.429
			c-21.485,4.826-37.055,22.817-38.745,44.768l-3.392,44.052c-0.007,0.103-0.015,0.206-0.019,0.308l-1.622,34.277
			c-0.636,8.919,3.163,17.384,10.06,22.834v9.943c-13.568,4.413-23.402,17.18-23.402,32.201s9.835,27.788,23.402,32.201v8.674
			c0,0.265,0.01,0.532,0.03,0.796c1.372,17.943,10.288,34.002,23.851,42.96c0.187,0.123,0.378,0.24,0.573,0.352l27.466,15.702
			v16.219c0,2.59-1.545,4.907-3.936,5.904l-67.241,28.017c-17.597,7.333-29.887,26.676-29.887,47.04v70.643H91.511V388.679
			c30.008-4.634,53.629-28.883,57.281-59.2c7.843-3.733,13.277-11.738,13.277-20.988c0-12.808-10.421-23.228-23.228-23.228H23.285
			c-12.808,0-23.228,10.421-23.228,23.229c0,9.249,5.433,17.253,13.277,20.985c3.649,30.32,27.272,54.568,57.282,59.201v102.406
			H44.384c-5.77,0-10.448,4.677-10.448,10.448s4.677,10.448,10.448,10.448h423.178c5.77,0,10.448-4.677,10.448-10.448
			S473.333,491.087,467.562,491.087z M34.909,331.692h27.73c5.77,0,10.448-4.677,10.448-10.448s-4.677-10.448-10.448-10.448H24.152
			c-0.243,0-0.482,0.02-0.722,0.037c-0.049-0.001-0.096-0.007-0.145-0.007c-1.264,0-2.332-1.068-2.332-2.333
			c0-1.264,1.068-2.332,2.332-2.332h115.558c1.264,0,2.332,1.068,2.332,2.333c0,1.264-1.068,2.332-2.339,2.332
			c-5.77,0-10.448,4.677-10.448,10.448c0,26.094-21.23,47.324-47.324,47.324C58.549,368.598,39.669,352.789,34.909,331.692z
			 M167.305,80.567c0.981-12.742,10.018-23.184,22.491-25.985l66.357-14.912l66.384,14.912c12.463,2.8,21.502,13.244,22.489,25.986
			l2.661,34.546c-28.761-12.357-60.054-18.851-91.527-18.851c-31.469,0-62.757,6.493-91.516,18.846L167.305,80.567z
			 M162.304,158.727l0.947-20.004c28.723-14.12,60.714-21.565,92.91-21.565s64.187,7.445,92.911,21.565l0.947,20.003
			c0.004,0.103,0.011,0.207,0.02,0.309c0.249,3.227-1.867,4.881-2.789,5.443c-0.912,0.555-3.328,1.667-6.04-0.007
			c-25.509-15.773-54.918-24.109-85.048-24.109s-59.539,8.338-85.041,24.106c-2.724,1.68-5.141,0.567-6.056,0.009
			c-0.919-0.561-3.032-2.214-2.781-5.432C162.292,158.939,162.298,158.834,162.304,158.727z M186.64,289.601
			c-7.984-5.406-13.283-15.291-14.245-26.569V245.98c0-5.77-4.677-10.448-10.448-10.448c-7.143,0-12.954-5.812-12.954-12.954
			c0-7.142,5.812-12.954,12.954-12.954c5.77,0,10.448-4.677,10.448-10.448v-13.299c3.374-0.557,6.672-1.758,9.707-3.632
			c44.99-27.816,103.129-27.817,148.126,0.004c2.921,1.803,6.088,2.981,9.332,3.563v13.363c0,5.77,4.677,10.448,10.448,10.448
			c7.143,0,12.954,5.812,12.954,12.954c0,7.142-5.812,12.954-12.954,12.954c-5.77,0-10.448,4.677-10.448,10.448v17.05
			c-0.949,11.049-6.442,21.173-14.419,26.574l-56.093,32.164c-0.191,0.11-0.377,0.225-0.561,0.346
			c-7.831,5.174-17.183,5.174-25.017,0c-0.187-0.124-0.377-0.241-0.573-0.352L186.64,289.601z M287.64,335.194v41.817
			c0,17.379-14.181,31.518-31.612,31.518c-17.487,0-31.713-14.139-31.713-31.518v-41.804l7.938,4.539
			c7.333,4.763,15.529,7.144,23.725,7.144c8.198,0,16.396-2.383,23.73-7.148L287.64,335.194z M123.251,491.087v-70.643
			c0-11.776,7.321-23.707,17.029-27.753l4.87-2.029c2.153,4.627,3.276,9.656,3.276,14.855v85.57H123.251z M312.446,491.087H199.875
			v-24.03h112.571V491.087z M342.632,405.516v85.571h-9.29v-34.478c0-5.77-4.677-10.448-10.448-10.448H189.427
			c-5.77,0-10.448,4.677-10.448,10.448v34.478h-9.657v-85.571c0-8.003-1.666-15.746-4.869-22.897l38.965-16.235v10.629
			c0,28.901,23.601,52.414,52.609,52.414c28.953,0,52.508-23.513,52.508-52.414v-10.629l38.965,16.235
			C344.298,389.77,342.632,397.513,342.632,405.516z M388.704,491.087h-0.001h-25.176v-85.571c0-5.199,1.123-10.226,3.277-14.855
			l4.871,2.029c9.708,4.045,17.029,15.976,17.029,27.753V491.087z"/>
	</g>
</g>
<g>
</g>
<g>
</g>
<g>
</g>
<g>
</g>
<g>
</g>
<g>
</g>
<g>
</g>
<g>
</g>
<g>
</g>
<g>
</g>
<g>
</g>
<g>
</g>
<g>
</g>
<g>
</g>
<g>
</g>
</svg>
