<?xml version="1.0" encoding="iso-8859-1"?>
<!-- Generator: Adobe Illustrator 18.0.0, SVG Export Plug-In . SVG Version: 6.00 Build 0)  -->
<!DOCTYPE svg PUBLIC "-//W3C//DTD SVG 1.1//EN" "http://www.w3.org/Graphics/SVG/1.1/DTD/svg11.dtd">
<svg version="1.1" id="Capa_1" xmlns="http://www.w3.org/2000/svg" xmlns:xlink="http://www.w3.org/1999/xlink" x="0px" y="0px"
	 viewBox="0 0 484.529 484.529" style="enable-background:new 0 0 484.529 484.529;" xml:space="preserve">
<g id="XMLID_128_">
	<path fill="#Ffffff" fill-rule="nonzero" id="XMLID_137_" d="M56.239,145.562c-2.128-8.271-3.374-16.85-3.374-25.655V91.303C19.885,132.704,0,185.015,0,241.955
		c0,76.527,35.757,144.766,91.357,189.189v-43.969c-36.328-37.72-58.779-88.852-58.779-145.22
		C32.578,207.194,41.209,174.455,56.239,145.562z"/>
	<path fill="#Ffffff" fill-rule="nonzero" id="XMLID_136_" d="M393.649,53.117V97.26c36.027,37.671,58.311,88.581,58.311,144.694
		c0,56.113-22.284,107.024-58.311,144.694v44.146c55.315-44.44,90.88-112.529,90.88-188.84
		C484.529,165.644,448.964,97.555,393.649,53.117z"/>
	<path fill="#Ffffff" fill-rule="nonzero" id="XMLID_135_" d="M265.612,450.261c-7.664,0.859-15.445,1.383-23.343,1.383c-7.318,0-14.526-0.389-21.635-1.12v20.032
		c0,4.351-0.808,8.477-1.96,12.47c7.764,0.747,15.637,1.193,23.595,1.193c8.302,0,16.503-0.429,24.586-1.25
		c-1.303-4.572-2.119-9.311-1.943-14.137L265.612,450.261z"/>
	<path fill="#Ffffff" fill-rule="nonzero" id="XMLID_134_" d="M259.091,28.001c5.999-9.097,12.98-17.495,20.871-25.074c-7.495-1.176-15.1-2.013-22.814-2.481
		c1.154,3.954,1.943,8.041,1.943,12.359V28.001z"/>
	<path fill="#Ffffff" fill-rule="nonzero" id="XMLID_133_" d="M393.649,171.527v140.855c9.986-21.425,15.732-45.233,15.732-70.428
		C409.38,216.762,403.635,192.952,393.649,171.527z"/>
	<path fill="#Ffffff" fill-rule="nonzero"  id="XMLID_132_" d="M75.148,241.955c0,25.592,5.922,49.735,16.209,71.413v-113.45c-3.053-2.433-5.931-5.034-8.649-7.77
		C77.807,207.878,75.148,224.61,75.148,241.955z"/>
	<path fill="#Ffffff" fill-rule="nonzero" id="XMLID_131_" d="M234.85,194.875v-9.003c-4.255,5.066-8.967,9.823-14.215,14.037v207.6
		c7.09,0.921,14.282,1.558,21.635,1.558c8.52,0,16.805-0.843,24.981-2.067l5.678-149.983l-15.073-12.717
		C243.254,231.992,234.85,213.978,234.85,194.875z"/>
	<path fill="#Ffffff" fill-rule="nonzero" id="XMLID_130_" d="M348.036,0.311c-1.432,0-2.895,0.24-4.3,0.724c-45.673,15.898-76.308,58.969-76.308,107.335v86.506
		c0,9.457,4.18,18.428,11.422,24.518l27.229,22.967l-8.624,227.704c-0.125,3.546,1.196,6.99,3.66,9.542c2.448,2.553,5.854,4,9.38,4
		h37.54c7.198,0,13.037-5.846,13.037-13.051V13.361c0-4.222-2.036-8.184-5.468-10.632C353.343,1.138,350.701,0.311,348.036,0.311z"
		/>
	<path fill="#Ffffff" fill-rule="nonzero" id="XMLID_129_" d="M226.523,12.805c0-6.902-5.603-12.494-12.507-12.494c-6.882,0-12.468,5.591-12.468,12.485v95.199
		c0,8.994-7.3,16.287-16.285,16.287c-9,0-16.285-7.293-16.285-16.287V13.291c0-7.167-5.83-12.979-12.98-12.979
		c-7.173,0-12.976,5.813-12.976,12.979v94.705c0,8.994-7.301,16.287-16.295,16.287c-8.998,0-16.282-7.293-16.282-16.287v-95.19
		c0-6.902-5.596-12.494-12.502-12.494c-6.906,0-12.499,5.591-12.499,12.494v107.103c0,27.348,15.729,50.793,38.491,62.5v288.148
		c0,7.205,5.838,13.051,13.038,13.051h38.028c7.209,0,13.064-5.846,13.064-13.051V182.399c22.735-11.707,38.458-35.15,38.458-62.491
		V12.805z"/>
</g>
<g>
</g>
<g>
</g>
<g>
</g>
<g>
</g>
<g>
</g>
<g>
</g>
<g>
</g>
<g>
</g>
<g>
</g>
<g>
</g>
<g>
</g>
<g>
</g>
<g>
</g>
<g>
</g>
<g>
</g>
</svg>
