
<svg width="40px" height="40px" version="1.1" viewBox="0 0 40 40" xmlns="http://www.w3.org/2000/svg" xmlns:xlink="http://www.w3.org/1999/xlink">
        <defs>
            <path id="a" d="m9.0828 27.112c-5.3063-1.9908-9.0828-7.1105-9.0828-13.112 0-7.732 6.268-14 14-14s14 6.268 14 14c0 6.0017-3.7765 11.121-9.0828 13.112l-4.0772 3.0579c-0.49778 0.37333-1.1822 0.37333-1.68 0l-4.0772-3.0579z"/>
            <filter id="b" x="-21.4%" y="-19.7%" width="142.9%" height="139.4%">
                <feOffset dx="0" dy="0" in="SourceAlpha" result="shadowOffsetOuter1"/>
                <feGaussianBlur in="shadowOffsetOuter1" result="shadowBlurOuter1" stdDeviation="2"/>
                <feComposite in="shadowBlurOuter1" in2="SourceAlpha" operator="out" result="shadowBlurOuter1"/>
                <feColorMatrix in="shadowBlurOuter1" values="0 0 0 0 0   0 0 0 0 0   0 0 0 0 0  0 0 0 0.3 0"/>
            </filter>
        </defs>
        <g fill="none" fill-rule="evenodd">
            <g transform="translate(6 5)">
                <g fill-rule="nonzero">
                    <use fill="black" filter="url(#b)" xlink:href="#a"/>
                    <path d="m9.4341 26.176 0.13412 0.050321 4.1918 3.1438c0.14222 0.10667 0.33778 0.10667 0.48 0l4.1918-3.1438 0.13412-0.050321c5.0317-1.8878 8.4341-6.7117 8.4341-12.176 0-7.1797-5.8203-13-13-13-7.1797 0-13 5.8203-13 13 0 5.4642 3.4024 10.288 8.4341 12.176z" fill="#f43939" fill-rule="evenodd" stroke="#fff" stroke-linejoin="square" stroke-width="2"/>
                </g>
                <circle cx="14" cy="14" r="4.2" fill="#fff"/>
            </g>
        </g>
</svg>
