
    <svg width="40px" height="40px" version="1.1" viewBox="0 0 40 40" xmlns="http://www.w3.org/2000/svg" xmlns:xlink="http://www.w3.org/1999/xlink">
        <defs>
            <path id="a" d="m9.0828 27.112c-5.3063-1.9908-9.0828-7.1105-9.0828-13.112 0-7.732 6.268-14 14-14s14 6.268 14 14c0 6.0017-3.7765 11.121-9.0828 13.112l-4.0772 3.0579c-0.49778 0.37333-1.1822 0.37333-1.68 0l-4.0772-3.0579z"/>
            <filter id="b" x="-21.4%" y="-19.7%" width="142.9%" height="139.4%">
                <feOffset dx="0" dy="0" in="SourceAlpha" result="shadowOffsetOuter1"/>
                <feGaussianBlur in="shadowOffsetOuter1" result="shadowBlurOuter1" stdDeviation="2"/>
                <feComposite in="shadowBlurOuter1" in2="SourceAlpha" operator="out" result="shadowBlurOuter1"/>
                <feColorMatrix in="shadowBlurOuter1" values="0 0 0 0 0   0 0 0 0 0   0 0 0 0 0  0 0 0 0.3 0"/>
            </filter>
        </defs>
        <g fill="none" fill-rule="evenodd">
            <g transform="translate(6 5)">
                <g fill-rule="nonzero">
                    <use fill="black" filter="url(#b)" xlink:href="#a"/>
                    <path d="m9.4341 26.176 0.13412 0.050321 4.1918 3.1438c0.14222 0.10667 0.33778 0.10667 0.48 0l4.1918-3.1438 0.13412-0.050321c5.0317-1.8878 8.4341-6.7117 8.4341-12.176 0-7.1797-5.8203-13-13-13-7.1797 0-13 5.8203-13 13 0 5.4642 3.4024 10.288 8.4341 12.176z" fill="#fff" fill-rule="evenodd" stroke="#0ab3c9" stroke-linejoin="square" stroke-width="2.5"/>
                </g>
                <path d="m14.005 17.778 2.9063 1.498c0.16007 0.082509 0.34242 0.11139 0.52016 0.082385 0.45786-0.074723 0.76846-0.50647 0.69373-0.96433l-0.52663-3.2269 2.3228-2.3011c0.12794-0.12674 0.21175-0.29124 0.23909-0.46924 0.070422-0.45854-0.24421-0.88735-0.70276-0.95778l-3.2317-0.49632-1.4707-2.9202c-0.081003-0.16084-0.21155-0.29139-0.37239-0.37239-0.41434-0.20867-0.91939-0.041947-1.1281 0.37239l-1.4707 2.9202-3.2317 0.49632c-0.178 0.027336-0.3425 0.11115-0.46924 0.23909-0.3265 0.32958-0.324 0.86143 0.0055755 1.1879l2.3228 2.3011-0.52663 3.2269c-0.029006 0.17773-1.2452e-4 0.36009 0.082385 0.52016 0.21255 0.41236 0.71915 0.57434 1.1315 0.36179l2.9063-1.498z" fill="#0ab3c9"/>
            </g>
        </g>
    </svg>
